<svg width="72" height="72" viewBox="0 0 72 72" fill="none" xmlns="http://www.w3.org/2000/svg">
<circle cx="36" cy="36" r="36" fill="#2B8BFC"/>
<path d="M10.9461 33.9146C10.8442 33.9146 10.8188 33.8637 10.8697 33.7873L11.4043 33.0999C11.4552 33.0236 11.5825 32.9727 11.6844 32.9727H20.7729C20.8748 32.9727 20.9002 33.049 20.8493 33.1254L20.4165 33.7873C20.3656 33.8637 20.2383 33.9401 20.1619 33.9401L10.9461 33.9146Z" fill="white"/>
<path d="M7.10183 36.2574C7 36.2574 6.97454 36.2065 7.02546 36.1301L7.56008 35.4427C7.611 35.3663 7.73829 35.3154 7.84012 35.3154H19.4491C19.5509 35.3154 19.6018 35.3918 19.5764 35.4682L19.3727 36.0792C19.3472 36.181 19.2454 36.2319 19.1436 36.2319L7.10183 36.2574Z" fill="white"/>
<path d="M13.2627 38.5992C13.1609 38.5992 13.1354 38.5228 13.1863 38.4464L13.5428 37.81C13.5937 37.7336 13.6955 37.6572 13.7973 37.6572H18.889C18.9908 37.6572 19.0417 37.7336 19.0417 37.8354L18.9908 38.4464C18.9908 38.5483 18.889 38.6246 18.8126 38.6246L13.2627 38.5992Z" fill="white"/>
<path d="M39.6882 33.4568C38.0844 33.8641 36.9897 34.1696 35.4113 34.577C35.0294 34.6788 35.0039 34.7043 34.673 34.3224C34.2911 33.8896 34.0111 33.6095 33.4764 33.355C31.8726 32.5658 30.3196 32.7949 28.8685 33.7368C27.1373 34.857 26.2463 36.5118 26.2718 38.5739C26.2972 40.6106 27.6974 42.2908 29.7086 42.5708C31.4398 42.8 32.8909 42.189 34.0365 40.8906C34.2656 40.6106 34.4693 40.3051 34.7239 39.9486C33.8074 39.9486 32.6618 39.9486 29.8105 39.9486C29.2758 39.9486 29.1485 39.6177 29.3267 39.1849C29.6577 38.3957 30.2687 37.0719 30.6251 36.41C30.7015 36.2572 30.8797 36.0026 31.2616 36.0026C32.5599 36.0026 37.3461 36.0026 40.5284 36.0026C40.4774 36.69 40.4774 37.3774 40.3756 38.0647C40.0956 39.8977 39.4082 41.578 38.288 43.0545C36.455 45.4731 34.062 46.9751 31.0324 47.3824C28.5375 47.7134 26.2208 47.2297 24.1842 45.7022C22.3003 44.2765 21.231 42.3926 20.951 40.0505C20.62 37.2755 21.4347 34.7806 23.1149 32.5912C24.9225 30.2236 27.3155 28.7216 30.2432 28.1869C32.6363 27.7542 34.9276 28.0342 36.9897 29.4344C38.339 30.3254 39.3064 31.5474 39.9428 33.024C40.0956 33.2531 39.9937 33.3804 39.6882 33.4568Z" fill="white"/>
<path d="M48.1149 47.5348C45.7982 47.4839 43.6852 46.822 41.9031 45.2945C40.4011 43.9961 39.4591 42.3413 39.1536 40.381C38.6954 37.5043 39.4846 34.9584 41.2157 32.6927C43.0742 30.2487 45.3145 28.9758 48.344 28.4411C50.9408 27.9829 53.3847 28.2375 55.5996 29.7395C57.6108 31.1143 58.8583 32.9727 59.1892 35.4167C59.622 38.8536 58.6291 41.654 56.2615 44.047C54.5813 45.7527 52.5192 46.822 50.1516 47.3057C49.4642 47.433 48.7768 47.4584 48.1149 47.5348ZM54.174 37.2497C54.1485 36.9187 54.1485 36.6641 54.0976 36.4096C53.6393 33.8892 51.3226 32.4635 48.9041 33.0236C46.5365 33.5582 45.009 35.0603 44.4489 37.4534C43.9907 39.4391 44.9581 41.4503 46.7911 42.265C48.1913 42.8759 49.5915 42.7996 50.9408 42.1122C52.952 41.0684 54.0467 39.4391 54.174 37.2497Z" fill="white"/>
</svg>
