<svg width="72" height="72" viewBox="0 0 72 72" fill="none" xmlns="http://www.w3.org/2000/svg">
<circle cx="36" cy="36" r="36" fill="#2B8BFC"/>
<path d="M52.8742 16.6562L33.7843 35.6343L33.7836 35.6349L14.5837 54.7949V37.3961L34.3818 16.6562H52.8742Z" fill="white" stroke="#2B8BFC"/>
<path d="M52.8818 55.4997H15.2926L34.1359 36.6956L52.8818 55.4997Z" fill="white" stroke="#2B8BFC"/>
<path d="M14.5837 16.6562H32.9993L14.5837 35.9478V16.6562Z" fill="white" stroke="#2B8BFC"/>
<path d="M50.1043 47.9642C49.7798 47.641 49.7833 47.1149 50.1078 46.7917C50.4322 46.4685 50.9604 46.4719 51.2815 46.7951C51.606 47.1183 51.6025 47.6444 51.278 47.9642C50.957 48.2908 50.4288 48.2874 50.1043 47.9642ZM43.6282 41.4759C43.3037 41.1527 43.3072 40.6267 43.6317 40.3034C43.9562 39.9802 44.4843 39.9837 44.8054 40.3069C45.1299 40.6301 45.1264 41.1562 44.8019 41.4759C44.4774 41.7957 43.9493 41.7991 43.6282 41.4759ZM53.8671 44.6599L57.0775 43.814C57.2604 43.7659 57.3709 43.5768 57.3226 43.3946C57.2742 43.2123 57.0844 43.1023 56.9014 43.1504L53.6496 44.01C53.1594 42.6897 52.3723 41.4381 51.2849 40.3516C50.1975 39.2616 48.9479 38.4708 47.6257 37.9757L48.506 34.7401C48.5543 34.5579 48.4473 34.3688 48.2644 34.3172C48.0814 34.2691 47.8915 34.3757 47.8397 34.5579L46.9698 37.7522C43.8595 36.8272 40.4351 37.4771 37.8149 39.6708L51.889 53.7682C54.1052 51.1688 54.7784 47.7613 53.8671 44.6599Z" fill="#D3E7FF"/>
</svg>
