<svg width="72" height="72" viewBox="0 0 72 72" fill="none" xmlns="http://www.w3.org/2000/svg">
<circle cx="36" cy="36" r="36" fill="#2B8BFC"/>
<g clip-path="url(#clip0)">
<path d="M22.0039 27.947H32.3553V28.7919H22.9528V35.1514H31.7946V35.9964H22.9528V42.9785H32.4631V43.8234H22.0039V27.947ZM33.2826 27.947H34.3825L39.2563 34.929L44.2379 27.947L51.0137 19.0781L39.8817 35.6628L45.6181 43.8234H44.4751L39.2563 36.3966L34.0159 43.8234H32.8945L38.674 35.6628L33.2826 27.947ZM46.0278 28.7919V27.947H57.8241V28.7919H52.3896V43.8234H51.4407V28.7919H46.0278Z" fill="white"/>
<path d="M9.05396 27.9473H10.2401L26.5957 53.0829L19.8367 43.8237L10.046 29.148L10.0028 43.8237H9.05396V27.9473Z" fill="white"/>
<path d="M57.7287 42.7239C57.9248 42.7239 58.0679 42.5696 58.0679 42.3703C58.0679 42.1709 57.9248 42.0166 57.7287 42.0166C57.5348 42.0166 57.3894 42.1709 57.3894 42.3703C57.3894 42.5696 57.5348 42.7239 57.7287 42.7239ZM58.6611 41.7935C58.6611 42.3821 59.0742 42.7666 59.6765 42.7666C60.3181 42.7666 60.7058 42.3703 60.7058 41.682V39.2588H60.1889V41.6796C60.1889 42.0617 60.0019 42.2658 59.6719 42.2658C59.3765 42.2658 59.1757 42.076 59.1688 41.7935H58.6611ZM61.3821 41.7627C61.419 42.375 61.9152 42.7666 62.6537 42.7666C63.443 42.7666 63.9369 42.356 63.9369 41.701C63.9369 41.186 63.6553 40.9012 62.9722 40.7374L62.6052 40.6449C62.1714 40.5404 61.996 40.4004 61.996 40.156C61.996 39.8474 62.2683 39.6457 62.6768 39.6457C63.0645 39.6457 63.3322 39.8427 63.3807 40.1583H63.8838C63.8538 39.5816 63.3599 39.1758 62.6837 39.1758C61.9567 39.1758 61.4721 39.5816 61.4721 40.1916C61.4721 40.6947 61.7467 40.9937 62.3491 41.1385L62.7783 41.2453C63.2191 41.3521 63.413 41.5087 63.413 41.7698C63.413 42.0736 63.1084 42.2943 62.6929 42.2943C62.2475 42.2943 61.9383 42.0878 61.8944 41.7627H61.3821Z" fill="white"/>
</g>
<defs>
<clipPath id="clip0">
<rect width="55" height="34" fill="white" transform="translate(9 19)"/>
</clipPath>
</defs>
</svg>
