<svg width="72" height="72" viewBox="0 0 72 72" fill="none" xmlns="http://www.w3.org/2000/svg">
<circle cx="36" cy="36" r="36" fill="#2B8BFC"/>
<path d="M36.4822 61.3644C35.7943 61.3644 35.1112 61.1839 34.5081 60.8367L28.2246 57.1167C27.2861 56.5918 27.7441 56.4062 28.0536 56.2992C29.3049 55.8611 29.5589 55.7622 30.8945 55.0036C31.0349 54.9235 31.2187 54.9518 31.3624 55.0366L36.1896 57.9011C36.3639 57.9953 36.6113 57.9953 36.7729 57.9011L55.5945 47.0368C55.7689 46.9379 55.8819 46.7353 55.8819 46.528V24.8088C55.8819 24.5921 55.7689 24.3989 55.5908 24.2906L36.7766 13.4357C36.6023 13.3321 36.3714 13.3321 36.1971 13.4357L17.3867 24.2906C17.2044 24.3942 17.0885 24.5968 17.0885 24.8041V46.5233C17.0885 46.7306 17.2016 46.9284 17.3806 47.0274L22.5348 50.0049C25.3333 51.4042 27.0435 49.7552 27.0435 48.0969V26.6604C27.0435 26.3541 27.2838 26.1186 27.59 26.1186H29.9739C30.2708 26.1186 30.5158 26.3541 30.5158 26.6604V48.1063C30.5158 51.8376 28.4805 53.9813 24.9423 53.9813C23.854 53.9813 22.9965 53.9813 20.6031 52.8035L15.6657 49.9578C14.4455 49.2511 13.6917 47.932 13.6917 46.5233V24.8041C13.6917 23.3907 14.4455 22.0716 15.6657 21.3743L34.5062 10.5053C35.6982 9.83157 37.2812 9.83157 38.4637 10.5053L57.2807 21.379C58.4962 22.081 59.2548 23.3954 59.2548 24.8088V46.528C59.2548 47.9367 58.4962 49.2511 57.2807 49.9578L38.4637 60.8268C37.8607 61.1755 37.1776 61.3545 36.4803 61.3545" fill="white"/>
<path d="M42.2958 46.398C34.0604 46.398 32.3337 42.6176 32.3337 39.4469C32.3337 39.1454 32.5768 38.9051 32.8788 38.9051H35.3099C35.5784 38.9051 35.8046 39.1006 35.847 39.3659C36.2144 41.8431 37.3075 43.0925 42.2873 43.0925C46.2543 43.0925 47.9409 42.1964 47.9409 40.0928C47.9409 38.882 47.4604 37.9822 41.298 37.3791C36.1438 36.8703 32.9589 35.7349 32.9589 31.6125C32.9589 27.8151 36.1626 25.5537 41.5288 25.5537C47.5546 25.5537 50.5416 27.6455 50.9185 32.1401C50.9326 32.2956 50.8761 32.4464 50.7724 32.5594C50.6688 32.6678 50.5227 32.7337 50.3719 32.7337H47.9268C47.6724 32.7337 47.4509 32.5547 47.3991 32.3097C46.8102 29.7044 45.3874 28.8705 41.5194 28.8705C37.1897 28.8705 36.6856 30.3781 36.6856 31.5088C36.6856 32.8798 37.2792 33.2803 43.1212 34.0529C48.9067 34.8209 51.6534 35.9045 51.6534 39.9703C51.6534 44.0692 48.233 46.4201 42.2685 46.4201L42.2958 46.398Z" fill="white"/>
</svg>
