<svg width="72" height="72" viewBox="0 0 72 72" fill="none" xmlns="http://www.w3.org/2000/svg">
<circle cx="36" cy="36" r="36" fill="#2B8BFC"/>
<path d="M35.7444 14C23.6012 14 24.3595 19.2543 24.3595 19.2543L24.3731 24.6977H35.961V26.332H19.7704C19.7704 26.332 12 25.4528 12 37.678C12 49.9033 18.7822 49.4698 18.7822 49.4698H22.8298V43.7968C22.8298 43.7968 22.6116 37.0297 29.5037 37.0297C36.3958 37.0297 40.9969 37.0297 40.9969 37.0297C40.9969 37.0297 47.4541 37.1339 47.4541 30.8029C47.4541 24.472 47.4541 20.3349 47.4541 20.3349C47.4541 20.3349 48.4345 14 35.7444 14ZM29.3548 17.6604C30.5077 17.6604 31.4395 18.5902 31.4395 19.7405C31.4395 20.8909 30.5077 21.8206 29.3548 21.8206C28.2019 21.8206 27.2701 20.8909 27.2701 19.7405C27.2701 18.5902 28.2019 17.6604 29.3548 17.6604Z" fill="white"/>
<path d="M35.2556 61C47.3988 61 46.6405 55.7457 46.6405 55.7457L46.6269 50.3023H35.039V48.668H51.2296C51.2296 48.668 59 49.5472 59 37.322C59 25.0967 52.2178 25.5302 52.2178 25.5302H48.1702V31.2032C48.1702 31.2032 48.3884 37.9703 41.4963 37.9703C34.6042 37.9703 30.0031 37.9703 30.0031 37.9703C30.0031 37.9703 23.5459 37.8661 23.5459 44.1971C23.5459 50.528 23.5459 54.6651 23.5459 54.6651C23.5459 54.6651 22.5655 61 35.2556 61ZM41.6452 57.3396C40.4923 57.3396 39.5605 56.4098 39.5605 55.2595C39.5605 54.1091 40.4923 53.1794 41.6452 53.1794C42.7981 53.1794 43.7299 54.1091 43.7299 55.2595C43.7299 56.4098 42.7981 57.3396 41.6452 57.3396Z" fill="white"/>
</svg>
