<svg width="72" height="72" viewBox="0 0 72 72" fill="none" xmlns="http://www.w3.org/2000/svg">
<circle cx="36" cy="36" r="36" fill="#2B8BFC"/>
<path d="M61.8365 35.3905C61.8365 32.026 57.5505 28.8374 50.9794 26.8601C52.4958 20.276 51.8219 15.0377 48.8522 13.3606C48.1677 12.9672 47.3674 12.7809 46.4933 12.7809V15.0894C46.9778 15.0894 47.3674 15.1826 47.6938 15.3586C49.126 16.1661 49.7473 19.2408 49.2629 23.1954C49.1471 24.1685 48.9575 25.1934 48.7259 26.239C46.6618 25.7421 44.4083 25.359 42.0389 25.1106C40.6172 23.1954 39.143 21.4562 37.6581 19.9344C41.0911 16.7976 44.3135 15.0791 46.5039 15.0791V12.7705C43.608 12.7705 39.8169 14.7996 35.9838 18.3194C32.1506 14.8203 28.3596 12.8119 25.4636 12.8119V15.1205C27.6435 15.1205 30.8764 16.8287 34.3094 19.9447C32.8351 21.4665 31.3608 23.1954 29.9602 25.1106C27.5803 25.359 25.3267 25.7421 23.2627 26.2493C23.0205 25.2141 22.8415 24.2099 22.7151 23.2471C22.2202 19.2925 22.831 16.2179 24.2526 15.4C24.5685 15.2137 24.9792 15.1309 25.4636 15.1309V12.8223C24.579 12.8223 23.7787 13.0086 23.0837 13.402C20.1246 15.0791 19.4611 20.3071 20.9881 26.8705C14.438 28.8582 10.1731 32.0363 10.1731 35.3905C10.1731 38.7551 14.4591 41.9436 21.0302 43.9209C19.5138 50.505 20.1878 55.7434 23.1574 57.4205C23.8419 57.8138 24.6422 58.0002 25.5268 58.0002C28.4227 58.0002 32.2138 55.9711 36.0469 52.4513C39.8801 55.9504 43.6711 57.9588 46.5671 57.9588C47.4516 57.9588 48.252 57.7724 48.947 57.379C51.9061 55.702 52.5695 50.474 51.0426 43.9106C57.5716 41.9332 61.8365 38.7447 61.8365 35.3905ZM48.1256 28.4855C47.736 29.8209 47.2516 31.1978 46.704 32.5747C46.2722 31.7465 45.8194 30.9183 45.3244 30.0901C44.84 29.2619 44.324 28.4544 43.808 27.6676C45.3034 27.885 46.7461 28.1542 48.1256 28.4855ZM43.3026 39.5108C42.4812 40.9084 41.6387 42.2335 40.7647 43.4654C39.1956 43.6 37.6055 43.6725 36.0048 43.6725C34.4147 43.6725 32.8246 43.6 31.266 43.4758C30.392 42.2438 29.539 40.9291 28.7176 39.5418C27.9173 38.1857 27.1906 36.8088 26.5272 35.4216C27.1801 34.0344 27.9173 32.6471 28.7071 31.291C29.5285 29.8934 30.3709 28.5683 31.245 27.3363C32.814 27.2018 34.4042 27.1293 36.0048 27.1293C37.5949 27.1293 39.1851 27.2018 40.7436 27.326C41.6177 28.5579 42.4706 29.8727 43.292 31.2599C44.0924 32.6161 44.819 33.9929 45.4824 35.3802C44.819 36.7674 44.0924 38.1546 43.3026 39.5108ZM46.704 38.165C47.2726 39.5522 47.757 40.9394 48.1572 42.2852C46.7777 42.6165 45.3244 42.896 43.8186 43.1134C44.3346 42.3163 44.8506 41.4984 45.335 40.6599C45.8194 39.8317 46.2722 38.9932 46.704 38.165ZM36.0259 49.211C35.0465 48.2172 34.0672 47.1095 33.0983 45.8982C34.0461 45.9396 35.0149 45.9707 35.9943 45.9707C36.9842 45.9707 37.9635 45.95 38.9218 45.8982C37.974 47.1095 36.9947 48.2172 36.0259 49.211ZM28.1911 43.1134C26.6957 42.896 25.253 42.6269 23.8735 42.2956C24.2631 40.9601 24.7475 39.5833 25.2951 38.2064C25.7269 39.0346 26.1797 39.8628 26.6746 40.691C27.1696 41.5192 27.6751 42.3266 28.1911 43.1134ZM35.9732 21.5701C36.9526 22.5639 37.9319 23.6716 38.9007 24.8828C37.953 24.8414 36.9842 24.8104 36.0048 24.8104C35.0149 24.8104 34.0356 24.8311 33.0773 24.8828C34.025 23.6716 35.0044 22.5639 35.9732 21.5701ZM28.1805 27.6676C27.6645 28.4648 27.1485 29.2826 26.6641 30.1211C26.1797 30.9493 25.7269 31.7775 25.2951 32.6057C24.7265 31.2185 24.2421 29.8313 23.8419 28.4855C25.2214 28.1645 26.6746 27.885 28.1805 27.6676ZM18.6503 40.6288C14.9224 39.0656 12.5109 37.0159 12.5109 35.3905C12.5109 33.7652 14.9224 31.7051 18.6503 30.1522C19.5559 29.7692 20.5458 29.4275 21.5673 29.1066C22.1675 31.1357 22.9573 33.2476 23.9367 35.4112C22.9679 37.5645 22.1886 39.6661 21.5989 41.6848C20.5563 41.3639 19.5664 41.0119 18.6503 40.6288ZM24.3158 55.4224C22.8836 54.615 22.2623 51.5403 22.7467 47.5857C22.8625 46.6125 23.0521 45.5876 23.2838 44.5421C25.3478 45.039 27.6013 45.422 29.9707 45.6705C31.3924 47.5857 32.8667 49.3249 34.3515 50.8467C30.9185 53.9835 27.6961 55.702 25.5057 55.702C25.0319 55.6916 24.6317 55.5984 24.3158 55.4224ZM49.2945 47.5339C49.7895 51.4885 49.1787 54.5632 47.757 55.381C47.4411 55.5674 47.0304 55.6502 46.546 55.6502C44.3662 55.6502 41.1332 53.942 37.7003 50.826C39.1745 49.3042 40.6488 47.5753 42.0494 45.6601C44.4293 45.4117 46.6829 45.0286 48.7469 44.5214C48.9891 45.5669 49.1787 46.5711 49.2945 47.5339ZM53.3488 40.6288C52.4432 41.0119 51.4533 41.3535 50.4318 41.6744C49.8316 39.6454 49.0418 37.5335 48.0624 35.3698C49.0312 33.2165 49.8105 31.115 50.4002 29.0963C51.4428 29.4172 52.4326 29.7692 53.3593 30.1522C57.0872 31.7154 59.4987 33.7652 59.4987 35.3905C59.4882 37.0159 57.0767 39.076 53.3488 40.6288Z" fill="white"/>
<path d="M35.9944 40.1203C38.6523 40.1203 40.8069 38.0021 40.8069 35.3892C40.8069 32.7764 38.6523 30.6582 35.9944 30.6582C33.3365 30.6582 31.1819 32.7764 31.1819 35.3892C31.1819 38.0021 33.3365 40.1203 35.9944 40.1203Z" fill="white"/>
</svg>
