<svg width="72" height="72" viewBox="0 0 72 72" fill="none" xmlns="http://www.w3.org/2000/svg">
<path fill-rule="evenodd" clip-rule="evenodd" d="M36 0C16.1178 0 0 16.1178 0 36C0 55.8823 16.1178 72 36 72C55.8823 72 72 55.8823 72 36C72 16.1178 55.8823 0 36 0ZM26.5115 18.5437C26.269 18.1433 25.8943 18.0367 25.4571 18.0735C25.3727 18.0845 25.2882 18.0845 25.1816 18C24.9384 18.0565 24.6948 18.1113 24.4512 18.1662C23.8707 18.2969 23.2901 18.4277 22.713 18.5804C21.6918 18.8559 20.902 19.4731 20.2701 20.3143C19.4656 21.398 18.933 22.6103 18.5068 23.8777C18.0329 25.2809 17.875 26.7063 18.1027 28.1867C18.3011 29.4945 18.7419 30.7178 19.1901 31.9521C19.9285 33.9982 20.744 36.004 21.8865 37.8665C23.6388 40.7355 25.8061 43.2555 28.2343 45.5662C30.1519 47.3846 32.2238 49.012 34.5014 50.3601C37.0104 51.8406 39.7362 52.8177 42.5023 53.67C43.935 54.1182 45.4265 54.2394 46.9216 53.9051C48.5673 53.5377 50.1139 52.939 51.4988 51.9691C51.9984 51.6128 52.4943 51.172 52.8433 50.6687C53.6772 49.4564 53.916 48.0458 53.9968 46.6095C54.0262 46.0988 53.8535 45.7278 53.4237 45.4743C53.1343 45.3009 52.8458 45.1246 52.5568 44.948C52.0501 44.6383 51.542 44.3278 51.0249 44.0306C50.5234 43.7421 50.0122 43.4698 49.5007 43.1972C48.4685 42.6473 47.435 42.0967 46.4771 41.4114C46.3746 41.3374 46.2544 41.281 46.1354 41.2252C46.1009 41.209 46.0665 41.1928 46.0326 41.1763C45.4926 40.9045 44.9783 40.9486 44.5081 41.3453C44.2766 41.5363 44.0379 41.7347 43.8395 41.9588C43.4824 42.3603 43.1301 42.7633 42.7781 43.1658C42.3154 43.6949 41.8534 44.2233 41.3819 44.747C40.4892 45.7425 40.0411 45.8527 38.8913 45.2025C37.6716 44.5119 36.4631 43.7882 35.3022 42.9984C32.2899 40.9596 29.9058 38.3146 28.0396 35.2031C27.5665 34.4123 27.1356 33.6053 26.7042 32.7973C26.6767 32.7458 26.6492 32.6942 26.6217 32.6427C26.3241 32.0806 26.438 31.548 26.8788 31.1219C27.2251 30.789 27.5852 30.4686 27.9456 30.1479C28.1739 29.9447 28.4023 29.7415 28.6274 29.5349C28.8085 29.3692 28.9913 29.2044 29.1742 29.0396C29.6927 28.5723 30.2122 28.1042 30.6956 27.61C31.1548 27.1434 31.1695 26.5557 30.8609 25.9716L30.8378 25.932C30.6945 25.6874 30.5477 25.4368 30.3944 25.1928C30.3307 25.0947 30.2628 24.9985 30.1949 24.9023C30.0746 24.732 29.9543 24.5617 29.858 24.3809C29.6094 23.9349 29.3673 23.4855 29.1254 23.0365C28.7955 22.4242 28.4659 21.8126 28.1205 21.2107C27.6433 20.3781 27.1412 19.5643 26.64 18.752C26.5971 18.6825 26.5543 18.6131 26.5115 18.5437Z" fill="#2B8BFC"/>
</svg>
