<svg width="60" height="72" viewBox="0 0 60 72" fill="none" xmlns="http://www.w3.org/2000/svg">
<path d="M10.92 50.546C9.386 50.546 7.735 50.338 5.967 49.922C4.225 49.506 2.86 49.051 1.872 48.557L2.457 43.253C5.889 44.917 8.905 45.749 11.505 45.749C12.883 45.749 13.962 45.489 14.742 44.969C15.522 44.423 15.912 43.63 15.912 42.59C15.912 41.81 15.691 41.173 15.249 40.679C14.833 40.159 14.222 39.73 13.416 39.392C12.61 39.028 11.323 38.534 9.555 37.91C7.891 37.338 6.513 36.74 5.421 36.116C4.329 35.466 3.458 34.647 2.808 33.659C2.184 32.645 1.872 31.41 1.872 29.954C1.872 27.614 2.73 25.729 4.446 24.299C6.162 22.869 8.619 22.154 11.817 22.154C13.325 22.154 14.82 22.323 16.302 22.661C17.81 22.999 19.188 23.415 20.436 23.909L19.929 29.018C18.317 28.316 16.835 27.796 15.483 27.458C14.157 27.094 12.831 26.912 11.505 26.912C10.023 26.912 8.892 27.159 8.112 27.653C7.332 28.147 6.942 28.862 6.942 29.798C6.942 30.526 7.15 31.124 7.566 31.592C7.982 32.06 8.541 32.45 9.243 32.762C9.971 33.074 11.037 33.451 12.441 33.893C15.587 34.881 17.875 36.025 19.305 37.325C20.761 38.599 21.489 40.354 21.489 42.59C21.489 44.722 20.748 46.581 19.266 48.167C17.784 49.753 15.002 50.546 10.92 50.546ZM48.129 22.7L38.418 50H33.699L23.988 22.7H29.019L36.039 42.785L43.098 22.7H48.129Z" fill="black"/>
<circle cx="54.5" cy="44.5" r="5.5" fill="#2B8BFC"/>
</svg>