<svg width="72" height="72" viewBox="0 0 72 72" fill="none" xmlns="http://www.w3.org/2000/svg">
<path fill-rule="evenodd" clip-rule="evenodd" d="M36 72C55.8823 72 72 55.8823 72 36C72 16.1178 55.8823 0 36 0C16.1178 0 0 16.1178 0 36C0 55.8823 16.1178 72 36 72ZM36.5019 33.9787C33.6895 33.9787 19.2003 25.7622 19.2003 25.7622V24.4791C19.2003 22.8894 20.4905 21.5991 22.0831 21.5991H50.9206C52.5147 21.5991 53.8049 22.8894 53.8049 24.4791L53.7819 25.9191C53.7819 25.9191 39.4495 33.9787 36.5019 33.9787ZM53.7819 30.2402C53.7819 30.2402 39.5849 37.9398 36.5019 37.9398C33.6895 37.9398 19.2219 30.2402 19.2233 30.2402L19.2003 47.5202C19.2003 49.11 20.4919 50.4002 22.0831 50.4002H50.9206C52.5147 50.4002 53.8049 49.11 53.8049 47.5202L53.7819 30.2402Z" fill="#2B8BFC"/>
</svg>
