<svg width="72" height="72" viewBox="0 0 72 72" fill="none" xmlns="http://www.w3.org/2000/svg">
<path fill-rule="evenodd" clip-rule="evenodd" d="M36.0003 0C16.1205 0 0 16.525 0 36.9111C0 53.2197 10.3152 67.0558 24.6192 71.9366C26.4184 72.2782 27.0789 71.1358 27.0789 70.1609C27.0789 69.2807 27.0455 66.373 27.03 63.2887C17.0147 65.5216 14.9014 58.9336 14.9014 58.9336C13.2637 54.6671 10.9042 53.5326 10.9042 53.5326C7.63787 51.2417 11.1504 51.2888 11.1504 51.2888C14.7654 51.5486 16.6689 55.0925 16.6689 55.0925C19.8798 60.7355 25.0908 59.1041 27.1451 58.161C27.4682 55.7759 28.4012 54.1463 29.4307 53.2252C21.4346 52.2918 13.0289 49.1268 13.0289 34.9833C13.0289 30.9533 14.4352 27.6606 16.7381 25.0756C16.3643 24.1453 15.1321 20.3917 17.0868 15.3074C17.0868 15.3074 20.1099 14.3153 26.9895 19.0909C29.8611 18.2731 32.9409 17.863 36.0003 17.8489C39.0597 17.863 42.1418 18.2731 45.0189 19.0909C51.8901 14.3153 54.909 15.3074 54.909 15.3074C56.8685 20.3917 55.6357 24.1453 55.2619 25.0756C57.5702 27.6606 58.967 30.9533 58.967 34.9833C58.967 49.1604 50.5452 52.282 42.5287 53.1959C43.82 54.3413 44.9706 56.5876 44.9706 60.0314C44.9706 64.9696 44.9288 68.9445 44.9288 70.1609C44.9288 71.1432 45.5768 72.2941 47.4017 71.9317C61.6979 67.0454 72 53.2142 72 36.9111C72 16.525 55.8819 0 36.0003 0Z" fill="#2B8BFC"/>
<path fill-rule="evenodd" clip-rule="evenodd" d="M13.635 52.9949C13.5557 53.1789 13.2744 53.2333 13.018 53.1074C12.7569 52.987 12.6103 52.737 12.6949 52.553C12.7724 52.3641 13.0544 52.3122 13.3149 52.4375C13.5766 52.5585 13.7256 52.8109 13.635 52.9949Z" fill="#2B8BFC"/>
<path fill-rule="evenodd" clip-rule="evenodd" d="M15.0932 54.6631C14.9215 54.8263 14.5859 54.7505 14.3582 54.4926C14.1227 54.2353 14.0786 53.8911 14.2527 53.7255C14.4297 53.5623 14.7552 53.6387 14.9913 53.896C15.2268 54.1564 15.2727 54.4981 15.0932 54.6631Z" fill="#2B8BFC"/>
<path fill-rule="evenodd" clip-rule="evenodd" d="M16.5129 56.7899C16.2923 56.947 15.9316 56.7997 15.7087 56.4715C15.4881 56.1432 15.4881 55.7496 15.7134 55.5919C15.937 55.4342 16.2923 55.576 16.5182 55.9018C16.7382 56.2349 16.7382 56.6292 16.5129 56.7899Z" fill="#2B8BFC"/>
<path fill-rule="evenodd" clip-rule="evenodd" d="M18.4573 58.8433C18.26 59.0664 17.8397 59.0065 17.5321 58.7021C17.2173 58.4044 17.1297 57.982 17.3276 57.7589C17.5273 57.5352 17.95 57.5982 18.26 57.9001C18.5724 58.1972 18.6678 58.6226 18.4573 58.8433Z" fill="#2B8BFC"/>
<path fill-rule="evenodd" clip-rule="evenodd" d="M21.1399 60.0357C21.0529 60.3248 20.6481 60.4562 20.2403 60.3334C19.8332 60.2068 19.5667 59.8682 19.6489 59.576C19.7336 59.2851 20.1402 59.1482 20.5509 59.2796C20.9575 59.4055 21.2246 59.7417 21.1399 60.0357Z" fill="#2B8BFC"/>
<path fill-rule="evenodd" clip-rule="evenodd" d="M24.0862 60.2575C24.0963 60.5619 23.7506 60.8143 23.3225 60.8192C22.8921 60.8296 22.544 60.5833 22.5392 60.2838C22.5392 59.9763 22.8772 59.7263 23.3076 59.719C23.7357 59.7104 24.0862 59.9549 24.0862 60.2575Z" fill="#2B8BFC"/>
<path fill-rule="evenodd" clip-rule="evenodd" d="M26.828 59.7795C26.8793 60.0765 26.5818 60.3815 26.1567 60.4622C25.7388 60.5411 25.3519 60.3577 25.2989 60.0631C25.247 59.7587 25.5499 59.4537 25.9672 59.3748C26.3928 59.299 26.7738 59.4775 26.828 59.7795Z" fill="#2B8BFC"/>
</svg>
