<svg width="72" height="72" viewBox="0 0 72 72" fill="none" xmlns="http://www.w3.org/2000/svg">
<path fill-rule="evenodd" clip-rule="evenodd" d="M36 0C16.1178 0 0 16.1178 0 36C0 55.8823 16.1178 72 36 72C55.8823 72 72 55.8823 72 36C72 16.1178 55.8823 0 36 0ZM28.0848 16.9163C30.1329 16.8231 30.7873 16.8003 36.0017 16.8003H35.9957C41.2118 16.8003 41.8638 16.8231 43.9118 16.9163C45.9558 17.0099 47.3518 17.3335 48.5759 17.8083C49.8399 18.2983 50.9079 18.9543 51.9759 20.0223C53.0439 21.0895 53.6999 22.1607 54.1919 23.4236C54.6639 24.6444 54.9879 26.0396 55.0839 28.0836C55.1759 30.1316 55.1999 30.786 55.1999 36.0005C55.1999 41.2149 55.1759 41.8678 55.0839 43.9158C54.9879 45.959 54.6639 47.3546 54.1919 48.5758C53.6999 49.8382 53.0439 50.9095 51.9759 51.9767C50.9091 53.0447 49.8395 53.7023 48.5771 54.1927C47.3554 54.6675 45.9586 54.9911 43.9146 55.0847C41.8666 55.1779 41.2142 55.2007 35.9993 55.2007C30.7853 55.2007 30.1313 55.1779 28.0832 55.0847C26.0396 54.9911 24.644 54.6675 23.4224 54.1927C22.1604 53.7023 21.0892 53.0447 20.0224 51.9767C18.9548 50.9095 18.2987 49.8382 17.8079 48.5754C17.3335 47.3546 17.0099 45.9594 16.9159 43.9154C16.8231 41.8674 16.7999 41.2149 16.7999 36.0005C16.7999 30.786 16.8239 30.1312 16.9155 28.0832C17.0075 26.04 17.3315 24.6444 17.8075 23.4232C18.2995 22.1607 18.9555 21.0895 20.0236 20.0223C21.0908 18.9547 22.162 18.2987 23.4248 17.8083C24.6456 17.3335 26.0408 17.0099 28.0848 16.9163Z" fill="#2B8BFC"/>
<path fill-rule="evenodd" clip-rule="evenodd" d="M34.2795 20.2607C34.6139 20.2601 34.9737 20.2603 35.362 20.2605L36.0019 20.2607C41.1283 20.2607 41.7359 20.2791 43.7604 20.3711C45.6324 20.4567 46.6484 20.7695 47.3252 21.0323C48.2212 21.3803 48.86 21.7963 49.5316 22.4683C50.2036 23.1403 50.6196 23.7803 50.9684 24.6763C51.2312 25.3523 51.5444 26.3683 51.6296 28.2403C51.7216 30.2644 51.7416 30.8724 51.7416 35.9964C51.7416 41.1205 51.7216 41.7285 51.6296 43.7525C51.544 45.6245 51.2312 46.6405 50.9684 47.3165C50.6204 48.2125 50.2036 48.8506 49.5316 49.5222C48.8596 50.1942 48.2216 50.6102 47.3252 50.9582C46.6492 51.2222 45.6324 51.5342 43.7604 51.6198C41.7363 51.7118 41.1283 51.7318 36.0019 51.7318C30.875 51.7318 30.2674 51.7118 28.2434 51.6198C26.3714 51.5334 25.3554 51.2206 24.6782 50.9578C23.7822 50.6098 23.1421 50.1938 22.4701 49.5218C21.7981 48.8498 21.3821 48.2113 21.0333 47.3149C20.7705 46.6389 20.4573 45.6229 20.3721 43.7509C20.2801 41.7269 20.2617 41.1189 20.2617 35.9916C20.2617 30.8644 20.2801 30.2596 20.3721 28.2355C20.4577 26.3635 20.7705 25.3475 21.0333 24.6707C21.3813 23.7747 21.7981 23.1347 22.4701 22.4627C23.1421 21.7907 23.7822 21.3747 24.6782 21.0259C25.355 20.7619 26.3714 20.4499 28.2434 20.3639C30.0146 20.2839 30.701 20.2599 34.2795 20.2559V20.2607ZM46.2508 23.4486C44.9788 23.4486 43.9468 24.4794 43.9468 25.7518C43.9468 27.0238 44.9788 28.0558 46.2508 28.0558C47.5228 28.0558 48.5548 27.0238 48.5548 25.7518C48.5548 24.4798 47.5228 23.4478 46.2508 23.4478V23.4486ZM26.142 36.0002C26.142 30.555 30.5568 26.1401 36.0021 26.1401H36.0017C41.4469 26.1401 45.8606 30.555 45.8606 36.0002C45.8606 41.4455 41.4473 45.8583 36.0021 45.8583C30.5568 45.8583 26.142 41.4455 26.142 36.0002Z" fill="#2B8BFC"/>
<path fill-rule="evenodd" clip-rule="evenodd" d="M36.002 29.5996C39.5364 29.5996 42.4021 32.4648 42.4021 35.9997C42.4021 39.5341 39.5364 42.3997 36.002 42.3997C32.4672 42.3997 29.6019 39.5341 29.6019 35.9997C29.6019 32.4648 32.4672 29.5996 36.002 29.5996V29.5996Z" fill="#2B8BFC"/>
</svg>
