<svg width="72" height="72" viewBox="0 0 72 72" fill="none" xmlns="http://www.w3.org/2000/svg">
<path fill-rule="evenodd" clip-rule="evenodd" d="M36 0C16.1178 0 0 16.1178 0 36C0 55.8823 16.1178 72 36 72C55.8823 72 72 55.8823 72 36C72 16.1178 55.8823 0 36 0ZM17.2826 29.8169H25.441V54.3295H17.2826V29.8169ZM25.9781 22.234C25.9251 19.8306 24.2064 18 21.4155 18C18.6245 18 16.7999 19.8306 16.7999 22.234C16.7999 24.5877 18.5706 26.471 21.3096 26.471H21.3617C24.2064 26.471 25.9781 24.5877 25.9781 22.234ZM45.4698 29.2412C50.8384 29.2412 54.8632 32.7454 54.8632 40.2746L54.8629 54.3294H46.7048V41.2151C46.7048 37.9211 45.5243 35.6734 42.5709 35.6734C40.317 35.6734 38.9744 37.1887 38.3848 38.6523C38.1691 39.1768 38.1162 39.9076 38.1162 40.6402V54.33H29.9568C29.9568 54.33 30.0643 32.1176 29.9568 29.8175H38.1162V33.2895C39.199 31.6204 41.1383 29.2412 45.4698 29.2412Z" fill="#2B8BFC"/>
</svg>
