<svg width="72" height="72" viewBox="0 0 72 72" fill="none" xmlns="http://www.w3.org/2000/svg">
<path fill-rule="evenodd" clip-rule="evenodd" d="M36 72C55.8823 72 72 55.8823 72 36C72 16.1178 55.8823 0 36 0C16.1178 0 0 16.1178 0 36C0 55.8823 16.1178 72 36 72ZM29.4 52.4998C30.2756 52.4998 30.6757 52.1102 31.1593 51.6394L31.2 51.5998L35.524 47.3952L44.52 54.0415C46.1755 54.955 47.3704 54.482 47.7828 52.5045L53.6883 24.6756C54.2929 22.2515 52.7642 21.1521 51.1805 21.8711L16.5035 35.2424C14.1364 36.1918 14.1502 37.5124 16.072 38.1008L24.9709 40.8783L45.5728 27.8808C46.5454 27.291 47.438 27.6081 46.7054 28.2583L30.0129 43.322L30.0126 43.3219L30.0126 43.3223L30.012 43.3228L30.0125 43.3232L29.4 52.4998Z" fill="#2B8BFC"/>
</svg>
