<svg width="72" height="72" viewBox="0 0 72 72" fill="none" xmlns="http://www.w3.org/2000/svg">
<path fill-rule="evenodd" clip-rule="evenodd" d="M36 0C16.1178 0 0 16.1178 0 36C0 55.8823 16.1178 72 36 72C55.8823 72 72 55.8823 72 36C72 16.1178 55.8823 0 36 0ZM34.9973 30.5075L34.9218 29.2618C34.6952 26.0332 36.6845 23.0843 39.8321 21.9403C40.9905 21.5335 42.9546 21.4827 44.2389 21.8386C44.7425 21.9911 45.6994 22.4996 46.3793 22.9572L47.6132 23.7961L48.9729 23.3639C49.7284 23.1351 50.7356 22.7538 51.1889 22.4996C51.617 22.2708 51.9947 22.1437 51.9947 22.2199C51.9947 22.6521 51.063 24.1266 50.2824 24.9401C49.2248 26.0841 49.5269 26.1858 51.6673 25.4231C52.9516 24.9909 52.9768 24.9909 52.7249 25.4739C52.5739 25.7282 51.7932 26.6179 50.9623 27.4314C49.5521 28.8297 49.4766 28.9822 49.4766 30.1516C49.4766 31.9566 48.6204 35.719 47.7642 37.7782C46.1778 41.6424 42.7784 45.6336 39.3789 47.642C34.5944 50.4638 28.2236 51.1757 22.86 49.5232C21.0721 48.9639 18 47.5403 18 47.2861C18 47.2098 18.9317 47.1081 20.0649 47.0827C22.4319 47.0319 24.7989 46.3709 26.8134 45.2015L28.1732 44.388L26.612 43.8541C24.396 43.0914 22.4067 41.3373 21.9031 39.6849C21.752 39.151 21.8024 39.1256 23.2125 39.1256L24.673 39.1002L23.4392 38.5155C21.9786 37.7782 20.644 36.5325 19.9893 35.2614C19.5109 34.3462 18.9065 32.0328 19.0828 31.8549C19.1332 31.7786 19.662 31.9312 20.2663 32.1345C22.0038 32.7701 22.2305 32.6175 21.2232 31.5498C19.3346 29.6177 18.7554 26.7451 19.662 24.0249L20.09 22.8046L21.752 24.4571C25.1515 27.7874 29.1553 29.7703 33.7383 30.355L34.9973 30.5075Z" fill="#2B8BFC"/>
</svg>
