<?xml version="1.0"?>
<svg xmlns="http://www.w3.org/2000/svg" xmlns:xlink="http://www.w3.org/1999/xlink" width="1332.4666666140001" height="803.5999999999999" font-family="Consolas, Menlo, 'Bitstream Vera Sans Mono', monospace, 'Powerline Symbols'" font-size="14px">
<style>
<!-- monokai theme -->

.default-text-fill {fill: #f8f8f2}
.default-bg-fill {fill: #272822}

.c-0 {fill: #272822}
.c-1 {fill: #f92672}
.c-2 {fill: #a6e22e}
.c-3 {fill: #f4bf75}
.c-4 {fill: #66d9ef}
.c-5 {fill: #ae81ff}
.c-6 {fill: #a1efe4}
.c-7 {fill: #f8f8f2}
.c-8 {fill: #75715e}
.c-9 {fill: #f92672}
.c-10 {fill: #a6e22e}
.c-11 {fill: #f4bf75}
.c-12 {fill: #66d9ef}
.c-13 {fill: #ae81ff}
.c-14 {fill: #a1efe4}
.c-15 {fill: #f9f8f5}
.c-8, .c-9, .c-10, .c-11, .c-12, .c-13, .c-14, .c-15 {font-weight: bold}

<!-- 256 colors -->

.c-16 {fill: #000000}
.c-17 {fill: #00005f}
.c-18 {fill: #000087}
.c-19 {fill: #0000af}
.c-20 {fill: #0000d7}
.c-21 {fill: #0000ff}
.c-22 {fill: #005f00}
.c-23 {fill: #005f5f}
.c-24 {fill: #005f87}
.c-25 {fill: #005faf}
.c-26 {fill: #005fd7}
.c-27 {fill: #005fff}
.c-28 {fill: #008700}
.c-29 {fill: #00875f}
.c-30 {fill: #008787}
.c-31 {fill: #0087af}
.c-32 {fill: #0087d7}
.c-33 {fill: #0087ff}
.c-34 {fill: #00af00}
.c-35 {fill: #00af5f}
.c-36 {fill: #00af87}
.c-37 {fill: #00afaf}
.c-38 {fill: #00afd7}
.c-39 {fill: #00afff}
.c-40 {fill: #00d700}
.c-41 {fill: #00d75f}
.c-42 {fill: #00d787}
.c-43 {fill: #00d7af}
.c-44 {fill: #00d7d7}
.c-45 {fill: #00d7ff}
.c-46 {fill: #00ff00}
.c-47 {fill: #00ff5f}
.c-48 {fill: #00ff87}
.c-49 {fill: #00ffaf}
.c-50 {fill: #00ffd7}
.c-51 {fill: #00ffff}
.c-52 {fill: #5f0000}
.c-53 {fill: #5f005f}
.c-54 {fill: #5f0087}
.c-55 {fill: #5f00af}
.c-56 {fill: #5f00d7}
.c-57 {fill: #5f00ff}
.c-58 {fill: #5f5f00}
.c-59 {fill: #5f5f5f}
.c-60 {fill: #5f5f87}
.c-61 {fill: #5f5faf}
.c-62 {fill: #5f5fd7}
.c-63 {fill: #5f5fff}
.c-64 {fill: #5f8700}
.c-65 {fill: #5f875f}
.c-66 {fill: #5f8787}
.c-67 {fill: #5f87af}
.c-68 {fill: #5f87d7}
.c-69 {fill: #5f87ff}
.c-70 {fill: #5faf00}
.c-71 {fill: #5faf5f}
.c-72 {fill: #5faf87}
.c-73 {fill: #5fafaf}
.c-74 {fill: #5fafd7}
.c-75 {fill: #5fafff}
.c-76 {fill: #5fd700}
.c-77 {fill: #5fd75f}
.c-78 {fill: #5fd787}
.c-79 {fill: #5fd7af}
.c-80 {fill: #5fd7d7}
.c-81 {fill: #5fd7ff}
.c-82 {fill: #5fff00}
.c-83 {fill: #5fff5f}
.c-84 {fill: #5fff87}
.c-85 {fill: #5fffaf}
.c-86 {fill: #5fffd7}
.c-87 {fill: #5fffff}
.c-88 {fill: #870000}
.c-89 {fill: #87005f}
.c-90 {fill: #870087}
.c-91 {fill: #8700af}
.c-92 {fill: #8700d7}
.c-93 {fill: #8700ff}
.c-94 {fill: #875f00}
.c-95 {fill: #875f5f}
.c-96 {fill: #875f87}
.c-97 {fill: #875faf}
.c-98 {fill: #875fd7}
.c-99 {fill: #875fff}
.c-100 {fill: #878700}
.c-101 {fill: #87875f}
.c-102 {fill: #878787}
.c-103 {fill: #8787af}
.c-104 {fill: #8787d7}
.c-105 {fill: #8787ff}
.c-106 {fill: #87af00}
.c-107 {fill: #87af5f}
.c-108 {fill: #87af87}
.c-109 {fill: #87afaf}
.c-110 {fill: #87afd7}
.c-111 {fill: #87afff}
.c-112 {fill: #87d700}
.c-113 {fill: #87d75f}
.c-114 {fill: #87d787}
.c-115 {fill: #87d7af}
.c-116 {fill: #87d7d7}
.c-117 {fill: #87d7ff}
.c-118 {fill: #87ff00}
.c-119 {fill: #87ff5f}
.c-120 {fill: #87ff87}
.c-121 {fill: #87ffaf}
.c-122 {fill: #87ffd7}
.c-123 {fill: #87ffff}
.c-124 {fill: #af0000}
.c-125 {fill: #af005f}
.c-126 {fill: #af0087}
.c-127 {fill: #af00af}
.c-128 {fill: #af00d7}
.c-129 {fill: #af00ff}
.c-130 {fill: #af5f00}
.c-131 {fill: #af5f5f}
.c-132 {fill: #af5f87}
.c-133 {fill: #af5faf}
.c-134 {fill: #af5fd7}
.c-135 {fill: #af5fff}
.c-136 {fill: #af8700}
.c-137 {fill: #af875f}
.c-138 {fill: #af8787}
.c-139 {fill: #af87af}
.c-140 {fill: #af87d7}
.c-141 {fill: #af87ff}
.c-142 {fill: #afaf00}
.c-143 {fill: #afaf5f}
.c-144 {fill: #afaf87}
.c-145 {fill: #afafaf}
.c-146 {fill: #afafd7}
.c-147 {fill: #afafff}
.c-148 {fill: #afd700}
.c-149 {fill: #afd75f}
.c-150 {fill: #afd787}
.c-151 {fill: #afd7af}
.c-152 {fill: #afd7d7}
.c-153 {fill: #afd7ff}
.c-154 {fill: #afff00}
.c-155 {fill: #afff5f}
.c-156 {fill: #afff87}
.c-157 {fill: #afffaf}
.c-158 {fill: #afffd7}
.c-159 {fill: #afffff}
.c-160 {fill: #d70000}
.c-161 {fill: #d7005f}
.c-162 {fill: #d70087}
.c-163 {fill: #d700af}
.c-164 {fill: #d700d7}
.c-165 {fill: #d700ff}
.c-166 {fill: #d75f00}
.c-167 {fill: #d75f5f}
.c-168 {fill: #d75f87}
.c-169 {fill: #d75faf}
.c-170 {fill: #d75fd7}
.c-171 {fill: #d75fff}
.c-172 {fill: #d78700}
.c-173 {fill: #d7875f}
.c-174 {fill: #d78787}
.c-175 {fill: #d787af}
.c-176 {fill: #d787d7}
.c-177 {fill: #d787ff}
.c-178 {fill: #d7af00}
.c-179 {fill: #d7af5f}
.c-180 {fill: #d7af87}
.c-181 {fill: #d7afaf}
.c-182 {fill: #d7afd7}
.c-183 {fill: #d7afff}
.c-184 {fill: #d7d700}
.c-185 {fill: #d7d75f}
.c-186 {fill: #d7d787}
.c-187 {fill: #d7d7af}
.c-188 {fill: #d7d7d7}
.c-189 {fill: #d7d7ff}
.c-190 {fill: #d7ff00}
.c-191 {fill: #d7ff5f}
.c-192 {fill: #d7ff87}
.c-193 {fill: #d7ffaf}
.c-194 {fill: #d7ffd7}
.c-195 {fill: #d7ffff}
.c-196 {fill: #ff0000}
.c-197 {fill: #ff005f}
.c-198 {fill: #ff0087}
.c-199 {fill: #ff00af}
.c-200 {fill: #ff00d7}
.c-201 {fill: #ff00ff}
.c-202 {fill: #ff5f00}
.c-203 {fill: #ff5f5f}
.c-204 {fill: #ff5f87}
.c-205 {fill: #ff5faf}
.c-206 {fill: #ff5fd7}
.c-207 {fill: #ff5fff}
.c-208 {fill: #ff8700}
.c-209 {fill: #ff875f}
.c-210 {fill: #ff8787}
.c-211 {fill: #ff87af}
.c-212 {fill: #ff87d7}
.c-213 {fill: #ff87ff}
.c-214 {fill: #ffaf00}
.c-215 {fill: #ffaf5f}
.c-216 {fill: #ffaf87}
.c-217 {fill: #ffafaf}
.c-218 {fill: #ffafd7}
.c-219 {fill: #ffafff}
.c-220 {fill: #ffd700}
.c-221 {fill: #ffd75f}
.c-222 {fill: #ffd787}
.c-223 {fill: #ffd7af}
.c-224 {fill: #ffd7d7}
.c-225 {fill: #ffd7ff}
.c-226 {fill: #ffff00}
.c-227 {fill: #ffff5f}
.c-228 {fill: #ffff87}
.c-229 {fill: #ffffaf}
.c-230 {fill: #ffffd7}
.c-231 {fill: #ffffff}
.c-232 {fill: #080808}
.c-233 {fill: #121212}
.c-234 {fill: #1c1c1c}
.c-235 {fill: #262626}
.c-236 {fill: #303030}
.c-237 {fill: #3a3a3a}
.c-238 {fill: #444444}
.c-239 {fill: #4e4e4e}
.c-240 {fill: #585858}
.c-241 {fill: #626262}
.c-242 {fill: #6c6c6c}
.c-243 {fill: #767676}
.c-244 {fill: #808080}
.c-245 {fill: #8a8a8a}
.c-246 {fill: #949494}
.c-247 {fill: #9e9e9e}
.c-248 {fill: #a8a8a8}
.c-249 {fill: #b2b2b2}
.c-250 {fill: #bcbcbc}
.c-251 {fill: #c6c6c6}
.c-252 {fill: #d0d0d0}
.c-253 {fill: #dadada}
.c-254 {fill: #e4e4e4}
.c-255 {fill: #eeeeee}

.br { font-weight: bold }
.it { font-style: italic }
.un { text-decoration: underline }
</style>

<rect width="100%" height="100%" class="default-bg-fill" rx="4" ry="4" />

<svg x="0.633%" y="1.220%" class="default-text-fill">
<g style="shape-rendering: optimizeSpeed">
<rect x="1.266%" y="0.000%" width="1.899%" height="19.7" class="c-234" />
<rect x="3.165%" y="0.000%" width="0.633%" height="19.7" class="c-234" />
<rect x="3.797%" y="0.000%" width="1.899%" height="19.7" class="c-234" />
<rect x="5.696%" y="0.000%" width="0.633%" height="19.7" class="c-234" />
<rect x="6.329%" y="0.000%" width="0.633%" height="19.7" class="c-234" />
<rect x="84.177%" y="0.000%" width="1.899%" height="19.7" class="c-234" />
<rect x="86.076%" y="0.000%" width="0.633%" height="19.7" class="c-234" />
<rect x="86.709%" y="0.000%" width="0.633%" height="19.7" class="c-234" />
<rect x="87.342%" y="0.000%" width="1.899%" height="19.7" class="c-234" />
<rect x="89.241%" y="0.000%" width="8.861%" height="19.7" class="c-234" />
<rect x="1.266%" y="73.171%" width="1.899%" height="19.7" class="c-234" />
<rect x="3.165%" y="73.171%" width="0.633%" height="19.7" class="c-234" />
<rect x="3.797%" y="73.171%" width="1.899%" height="19.7" class="c-234" />
<rect x="5.696%" y="73.171%" width="0.633%" height="19.7" class="c-234" />
<rect x="6.329%" y="73.171%" width="0.633%" height="19.7" class="c-234" />
<rect x="84.177%" y="73.171%" width="1.899%" height="19.7" class="c-234" />
<rect x="86.076%" y="73.171%" width="0.633%" height="19.7" class="c-234" />
<rect x="86.709%" y="73.171%" width="0.633%" height="19.7" class="c-234" />
<rect x="87.342%" y="73.171%" width="1.899%" height="19.7" class="c-234" />
<rect x="89.241%" y="73.171%" width="8.861%" height="19.7" class="c-234" />
<rect x="1.899%" y="75.610%" width="0.633%" height="19.7" class="c-7" />
</g>

<text class="default-text-fill">
<tspan y="0.000%">
<tspan dy="1em" x="0.000%" class="c-238">╭</tspan><tspan x="0.633%" class="c-238">─</tspan><tspan x="1.899%" class="c-255"></tspan><tspan x="3.165%" class="c-242"></tspan><tspan x="4.430%" class="c-31"></tspan><tspan x="5.696%" class="br c-39">~</tspan><tspan x="6.962%" class="c-234"></tspan><tspan x="83.544%" class="c-234"></tspan><tspan x="84.810%" class="c-70">✔</tspan><tspan x="86.076%" class="c-242"></tspan><tspan x="87.342%" class="c-244">a</tspan><tspan x="87.975%" class="c-244">t</tspan><tspan x="89.241%" class="c-66">0</tspan><tspan x="89.873%" class="c-66">7</tspan><tspan x="90.506%" class="c-66">:</tspan><tspan x="91.139%" class="c-66">4</tspan><tspan x="91.772%" class="c-66">9</tspan><tspan x="92.405%" class="c-66">:</tspan><tspan x="93.038%" class="c-66">5</tspan><tspan x="93.671%" class="c-66">5</tspan><tspan x="94.937%" class="c-66">P</tspan><tspan x="95.570%" class="c-66">M</tspan><tspan x="96.835%" class="c-66"></tspan>
</tspan>
<tspan y="2.439%">
<tspan dy="1em" x="0.000%" class="c-238">╰</tspan><tspan x="0.633%" class="c-238">─</tspan><tspan x="1.899%">g</tspan><tspan x="2.532%">t</tspan><tspan x="3.165%">a</tspan><tspan x="3.797%">s</tspan><tspan x="4.430%">k</tspan><tspan x="5.063%">s</tspan>
</tspan>
<tspan y="4.878%">
<tspan dy="1em" x="0.000%">A</tspan><tspan x="1.266%">C</tspan><tspan x="1.899%">L</tspan><tspan x="2.532%">I</tspan><tspan x="3.797%">T</tspan><tspan x="4.430%">o</tspan><tspan x="5.063%">o</tspan><tspan x="5.696%">l</tspan><tspan x="6.962%">f</tspan><tspan x="7.595%">o</tspan><tspan x="8.228%">r</tspan><tspan x="9.494%">m</tspan><tspan x="10.127%">a</tspan><tspan x="10.759%">n</tspan><tspan x="11.392%">a</tspan><tspan x="12.025%">g</tspan><tspan x="12.658%">i</tspan><tspan x="13.291%">n</tspan><tspan x="13.924%">g</tspan><tspan x="15.190%">y</tspan><tspan x="15.823%">o</tspan><tspan x="16.456%">u</tspan><tspan x="17.089%">r</tspan><tspan x="18.354%">G</tspan><tspan x="18.987%">o</tspan><tspan x="19.620%">o</tspan><tspan x="20.253%">g</tspan><tspan x="20.886%">l</tspan><tspan x="21.519%">e</tspan><tspan x="22.785%">T</tspan><tspan x="23.418%">a</tspan><tspan x="24.051%">s</tspan><tspan x="24.684%">k</tspan><tspan x="25.316%">s</tspan><tspan x="25.949%">:</tspan>
</tspan>
<tspan y="7.317%">

</tspan>
<tspan y="9.756%">
<tspan dy="1em" x="0.000%">M</tspan><tspan x="0.633%">a</tspan><tspan x="1.266%">d</tspan><tspan x="1.899%">e</tspan><tspan x="3.165%">w</tspan><tspan x="3.797%">i</tspan><tspan x="4.430%">t</tspan><tspan x="5.063%">h</tspan><tspan x="6.329%">♥</tspan><tspan x="10.127%">b</tspan><tspan x="10.759%">y</tspan><tspan x="12.025%">h</tspan><tspan x="12.658%">t</tspan><tspan x="13.291%">t</tspan><tspan x="13.924%">p</tspan><tspan x="14.557%">s</tspan><tspan x="15.190%">:</tspan><tspan x="15.823%">/</tspan><tspan x="16.456%">/</tspan><tspan x="17.089%">g</tspan><tspan x="17.722%">i</tspan><tspan x="18.354%">t</tspan><tspan x="18.987%">h</tspan><tspan x="19.620%">u</tspan><tspan x="20.253%">b</tspan><tspan x="20.886%">.</tspan><tspan x="21.519%">c</tspan><tspan x="22.152%">o</tspan><tspan x="22.785%">m</tspan><tspan x="23.418%">/</tspan><tspan x="24.051%">B</tspan><tspan x="24.684%">R</tspan><tspan x="25.316%">O</tspan><tspan x="25.949%">3</tspan><tspan x="26.582%">8</tspan><tspan x="27.215%">8</tspan><tspan x="27.848%">6</tspan>
</tspan>
<tspan y="12.195%">

</tspan>
<tspan y="14.634%">

</tspan>
<tspan y="17.073%">
<tspan dy="1em" x="0.000%">█</tspan><tspan x="0.633%">█</tspan><tspan x="1.266%">█</tspan><tspan x="1.899%">█</tspan><tspan x="2.532%">█</tspan><tspan x="3.165%">█</tspan><tspan x="3.797%">█</tspan><tspan x="4.430%">█</tspan><tspan x="5.063%">╗</tspan><tspan x="5.696%">░</tspan><tspan x="6.329%">█</tspan><tspan x="6.962%">█</tspan><tspan x="7.595%">█</tspan><tspan x="8.228%">█</tspan><tspan x="8.861%">█</tspan><tspan x="9.494%">╗</tspan><tspan x="10.127%">░</tspan><tspan x="10.759%">░</tspan><tspan x="11.392%">█</tspan><tspan x="12.025%">█</tspan><tspan x="12.658%">█</tspan><tspan x="13.291%">█</tspan><tspan x="13.924%">█</tspan><tspan x="14.557%">█</tspan><tspan x="15.190%">╗</tspan><tspan x="15.823%">█</tspan><tspan x="16.456%">█</tspan><tspan x="17.089%">╗</tspan><tspan x="17.722%">░</tspan><tspan x="18.354%">░</tspan><tspan x="18.987%">█</tspan><tspan x="19.620%">█</tspan><tspan x="20.253%">╗</tspan><tspan x="20.886%">░</tspan><tspan x="21.519%">█</tspan><tspan x="22.152%">█</tspan><tspan x="22.785%">█</tspan><tspan x="23.418%">█</tspan><tspan x="24.051%">█</tspan><tspan x="24.684%">█</tspan><tspan x="25.316%">╗</tspan><tspan x="27.215%">░</tspan><tspan x="27.848%">█</tspan><tspan x="28.481%">█</tspan><tspan x="29.114%">█</tspan><tspan x="29.747%">█</tspan><tspan x="30.380%">█</tspan><tspan x="31.013%">╗</tspan><tspan x="31.646%">░</tspan><tspan x="32.278%">█</tspan><tspan x="32.911%">█</tspan><tspan x="33.544%">╗</tspan><tspan x="34.177%">░</tspan><tspan x="34.810%">░</tspan><tspan x="35.443%">░</tspan><tspan x="36.076%">░</tspan><tspan x="36.709%">░</tspan><tspan x="37.342%">█</tspan><tspan x="37.975%">█</tspan><tspan x="38.608%">╗</tspan>
</tspan>
<tspan y="19.512%">
<tspan dy="1em" x="0.000%">╚</tspan><tspan x="0.633%">═</tspan><tspan x="1.266%">═</tspan><tspan x="1.899%">█</tspan><tspan x="2.532%">█</tspan><tspan x="3.165%">╔</tspan><tspan x="3.797%">═</tspan><tspan x="4.430%">═</tspan><tspan x="5.063%">╝</tspan><tspan x="5.696%">█</tspan><tspan x="6.329%">█</tspan><tspan x="6.962%">╔</tspan><tspan x="7.595%">═</tspan><tspan x="8.228%">═</tspan><tspan x="8.861%">█</tspan><tspan x="9.494%">█</tspan><tspan x="10.127%">╗</tspan><tspan x="10.759%">█</tspan><tspan x="11.392%">█</tspan><tspan x="12.025%">╔</tspan><tspan x="12.658%">═</tspan><tspan x="13.291%">═</tspan><tspan x="13.924%">═</tspan><tspan x="14.557%">═</tspan><tspan x="15.190%">╝</tspan><tspan x="15.823%">█</tspan><tspan x="16.456%">█</tspan><tspan x="17.089%">║</tspan><tspan x="17.722%">░</tspan><tspan x="18.354%">█</tspan><tspan x="18.987%">█</tspan><tspan x="19.620%">╔</tspan><tspan x="20.253%">╝</tspan><tspan x="20.886%">█</tspan><tspan x="21.519%">█</tspan><tspan x="22.152%">╔</tspan><tspan x="22.785%">═</tspan><tspan x="23.418%">═</tspan><tspan x="24.051%">═</tspan><tspan x="24.684%">═</tspan><tspan x="25.316%">╝</tspan><tspan x="27.215%">█</tspan><tspan x="27.848%">█</tspan><tspan x="28.481%">╔</tspan><tspan x="29.114%">═</tspan><tspan x="29.747%">═</tspan><tspan x="30.380%">█</tspan><tspan x="31.013%">█</tspan><tspan x="31.646%">╗</tspan><tspan x="32.278%">█</tspan><tspan x="32.911%">█</tspan><tspan x="33.544%">║</tspan><tspan x="34.177%">░</tspan><tspan x="34.810%">░</tspan><tspan x="35.443%">░</tspan><tspan x="36.076%">░</tspan><tspan x="36.709%">░</tspan><tspan x="37.342%">█</tspan><tspan x="37.975%">█</tspan><tspan x="38.608%">║</tspan>
</tspan>
<tspan y="21.951%">
<tspan dy="1em" x="0.000%">░</tspan><tspan x="0.633%">░</tspan><tspan x="1.266%">░</tspan><tspan x="1.899%">█</tspan><tspan x="2.532%">█</tspan><tspan x="3.165%">║</tspan><tspan x="3.797%">░</tspan><tspan x="4.430%">░</tspan><tspan x="5.063%">░</tspan><tspan x="5.696%">█</tspan><tspan x="6.329%">█</tspan><tspan x="6.962%">█</tspan><tspan x="7.595%">█</tspan><tspan x="8.228%">█</tspan><tspan x="8.861%">█</tspan><tspan x="9.494%">█</tspan><tspan x="10.127%">║</tspan><tspan x="10.759%">╚</tspan><tspan x="11.392%">█</tspan><tspan x="12.025%">█</tspan><tspan x="12.658%">█</tspan><tspan x="13.291%">█</tspan><tspan x="13.924%">█</tspan><tspan x="14.557%">╗</tspan><tspan x="15.190%">░</tspan><tspan x="15.823%">█</tspan><tspan x="16.456%">█</tspan><tspan x="17.089%">█</tspan><tspan x="17.722%">█</tspan><tspan x="18.354%">█</tspan><tspan x="18.987%">═</tspan><tspan x="19.620%">╝</tspan><tspan x="20.253%">░</tspan><tspan x="20.886%">╚</tspan><tspan x="21.519%">█</tspan><tspan x="22.152%">█</tspan><tspan x="22.785%">█</tspan><tspan x="23.418%">█</tspan><tspan x="24.051%">█</tspan><tspan x="24.684%">╗</tspan><tspan x="25.316%">░</tspan><tspan x="27.215%">█</tspan><tspan x="27.848%">█</tspan><tspan x="28.481%">║</tspan><tspan x="29.114%">░</tspan><tspan x="29.747%">░</tspan><tspan x="30.380%">╚</tspan><tspan x="31.013%">═</tspan><tspan x="31.646%">╝</tspan><tspan x="32.278%">█</tspan><tspan x="32.911%">█</tspan><tspan x="33.544%">║</tspan><tspan x="34.177%">░</tspan><tspan x="34.810%">░</tspan><tspan x="35.443%">░</tspan><tspan x="36.076%">░</tspan><tspan x="36.709%">░</tspan><tspan x="37.342%">█</tspan><tspan x="37.975%">█</tspan><tspan x="38.608%">║</tspan>
</tspan>
<tspan y="24.390%">
<tspan dy="1em" x="0.000%">░</tspan><tspan x="0.633%">░</tspan><tspan x="1.266%">░</tspan><tspan x="1.899%">█</tspan><tspan x="2.532%">█</tspan><tspan x="3.165%">║</tspan><tspan x="3.797%">░</tspan><tspan x="4.430%">░</tspan><tspan x="5.063%">░</tspan><tspan x="5.696%">█</tspan><tspan x="6.329%">█</tspan><tspan x="6.962%">╔</tspan><tspan x="7.595%">═</tspan><tspan x="8.228%">═</tspan><tspan x="8.861%">█</tspan><tspan x="9.494%">█</tspan><tspan x="10.127%">║</tspan><tspan x="10.759%">░</tspan><tspan x="11.392%">╚</tspan><tspan x="12.025%">═</tspan><tspan x="12.658%">═</tspan><tspan x="13.291%">═</tspan><tspan x="13.924%">█</tspan><tspan x="14.557%">█</tspan><tspan x="15.190%">╗</tspan><tspan x="15.823%">█</tspan><tspan x="16.456%">█</tspan><tspan x="17.089%">╔</tspan><tspan x="17.722%">═</tspan><tspan x="18.354%">█</tspan><tspan x="18.987%">█</tspan><tspan x="19.620%">╗</tspan><tspan x="20.253%">░</tspan><tspan x="20.886%">░</tspan><tspan x="21.519%">╚</tspan><tspan x="22.152%">═</tspan><tspan x="22.785%">═</tspan><tspan x="23.418%">═</tspan><tspan x="24.051%">█</tspan><tspan x="24.684%">█</tspan><tspan x="25.316%">╗</tspan><tspan x="27.215%">█</tspan><tspan x="27.848%">█</tspan><tspan x="28.481%">║</tspan><tspan x="29.114%">░</tspan><tspan x="29.747%">░</tspan><tspan x="30.380%">█</tspan><tspan x="31.013%">█</tspan><tspan x="31.646%">╗</tspan><tspan x="32.278%">█</tspan><tspan x="32.911%">█</tspan><tspan x="33.544%">║</tspan><tspan x="34.177%">░</tspan><tspan x="34.810%">░</tspan><tspan x="35.443%">░</tspan><tspan x="36.076%">░</tspan><tspan x="36.709%">░</tspan><tspan x="37.342%">█</tspan><tspan x="37.975%">█</tspan><tspan x="38.608%">║</tspan>
</tspan>
<tspan y="26.829%">
<tspan dy="1em" x="0.000%">░</tspan><tspan x="0.633%">░</tspan><tspan x="1.266%">░</tspan><tspan x="1.899%">█</tspan><tspan x="2.532%">█</tspan><tspan x="3.165%">║</tspan><tspan x="3.797%">░</tspan><tspan x="4.430%">░</tspan><tspan x="5.063%">░</tspan><tspan x="5.696%">█</tspan><tspan x="6.329%">█</tspan><tspan x="6.962%">║</tspan><tspan x="7.595%">░</tspan><tspan x="8.228%">░</tspan><tspan x="8.861%">█</tspan><tspan x="9.494%">█</tspan><tspan x="10.127%">║</tspan><tspan x="10.759%">█</tspan><tspan x="11.392%">█</tspan><tspan x="12.025%">█</tspan><tspan x="12.658%">█</tspan><tspan x="13.291%">█</tspan><tspan x="13.924%">█</tspan><tspan x="14.557%">╔</tspan><tspan x="15.190%">╝</tspan><tspan x="15.823%">█</tspan><tspan x="16.456%">█</tspan><tspan x="17.089%">║</tspan><tspan x="17.722%">░</tspan><tspan x="18.354%">╚</tspan><tspan x="18.987%">█</tspan><tspan x="19.620%">█</tspan><tspan x="20.253%">╗</tspan><tspan x="20.886%">█</tspan><tspan x="21.519%">█</tspan><tspan x="22.152%">█</tspan><tspan x="22.785%">█</tspan><tspan x="23.418%">█</tspan><tspan x="24.051%">█</tspan><tspan x="24.684%">╔</tspan><tspan x="25.316%">╝</tspan><tspan x="27.215%">╚</tspan><tspan x="27.848%">█</tspan><tspan x="28.481%">█</tspan><tspan x="29.114%">█</tspan><tspan x="29.747%">█</tspan><tspan x="30.380%">█</tspan><tspan x="31.013%">╔</tspan><tspan x="31.646%">╝</tspan><tspan x="32.278%">█</tspan><tspan x="32.911%">█</tspan><tspan x="33.544%">█</tspan><tspan x="34.177%">█</tspan><tspan x="34.810%">█</tspan><tspan x="35.443%">█</tspan><tspan x="36.076%">█</tspan><tspan x="36.709%">╗</tspan><tspan x="37.342%">█</tspan><tspan x="37.975%">█</tspan><tspan x="38.608%">║</tspan>
</tspan>
<tspan y="29.268%">
<tspan dy="1em" x="0.000%">░</tspan><tspan x="0.633%">░</tspan><tspan x="1.266%">░</tspan><tspan x="1.899%">╚</tspan><tspan x="2.532%">═</tspan><tspan x="3.165%">╝</tspan><tspan x="3.797%">░</tspan><tspan x="4.430%">░</tspan><tspan x="5.063%">░</tspan><tspan x="5.696%">╚</tspan><tspan x="6.329%">═</tspan><tspan x="6.962%">╝</tspan><tspan x="7.595%">░</tspan><tspan x="8.228%">░</tspan><tspan x="8.861%">╚</tspan><tspan x="9.494%">═</tspan><tspan x="10.127%">╝</tspan><tspan x="10.759%">╚</tspan><tspan x="11.392%">═</tspan><tspan x="12.025%">═</tspan><tspan x="12.658%">═</tspan><tspan x="13.291%">═</tspan><tspan x="13.924%">═</tspan><tspan x="14.557%">╝</tspan><tspan x="15.190%">░</tspan><tspan x="15.823%">╚</tspan><tspan x="16.456%">═</tspan><tspan x="17.089%">╝</tspan><tspan x="17.722%">░</tspan><tspan x="18.354%">░</tspan><tspan x="18.987%">╚</tspan><tspan x="19.620%">═</tspan><tspan x="20.253%">╝</tspan><tspan x="20.886%">╚</tspan><tspan x="21.519%">═</tspan><tspan x="22.152%">═</tspan><tspan x="22.785%">═</tspan><tspan x="23.418%">═</tspan><tspan x="24.051%">═</tspan><tspan x="24.684%">╝</tspan><tspan x="25.316%">░</tspan><tspan x="27.215%">░</tspan><tspan x="27.848%">╚</tspan><tspan x="28.481%">═</tspan><tspan x="29.114%">═</tspan><tspan x="29.747%">═</tspan><tspan x="30.380%">═</tspan><tspan x="31.013%">╝</tspan><tspan x="31.646%">░</tspan><tspan x="32.278%">╚</tspan><tspan x="32.911%">═</tspan><tspan x="33.544%">═</tspan><tspan x="34.177%">═</tspan><tspan x="34.810%">═</tspan><tspan x="35.443%">═</tspan><tspan x="36.076%">═</tspan><tspan x="36.709%">╝</tspan><tspan x="37.342%">╚</tspan><tspan x="37.975%">═</tspan><tspan x="38.608%">╝</tspan>
</tspan>
<tspan y="31.707%">

</tspan>
<tspan y="34.146%">
<tspan dy="1em" x="0.000%">U</tspan><tspan x="0.633%">s</tspan><tspan x="1.266%">a</tspan><tspan x="1.899%">g</tspan><tspan x="2.532%">e</tspan><tspan x="3.165%">:</tspan>
</tspan>
<tspan y="36.585%">
<tspan dy="1em" x="1.266%">g</tspan><tspan x="1.899%">t</tspan><tspan x="2.532%">a</tspan><tspan x="3.165%">s</tspan><tspan x="3.797%">k</tspan><tspan x="4.430%">s</tspan><tspan x="5.696%">[</tspan><tspan x="6.329%">c</tspan><tspan x="6.962%">o</tspan><tspan x="7.595%">m</tspan><tspan x="8.228%">m</tspan><tspan x="8.861%">a</tspan><tspan x="9.494%">n</tspan><tspan x="10.127%">d</tspan><tspan x="10.759%">]</tspan>
</tspan>
<tspan y="39.024%">

</tspan>
<tspan y="41.463%">
<tspan dy="1em" x="0.000%">A</tspan><tspan x="0.633%">v</tspan><tspan x="1.266%">a</tspan><tspan x="1.899%">i</tspan><tspan x="2.532%">l</tspan><tspan x="3.165%">a</tspan><tspan x="3.797%">b</tspan><tspan x="4.430%">l</tspan><tspan x="5.063%">e</tspan><tspan x="6.329%">C</tspan><tspan x="6.962%">o</tspan><tspan x="7.595%">m</tspan><tspan x="8.228%">m</tspan><tspan x="8.861%">a</tspan><tspan x="9.494%">n</tspan><tspan x="10.127%">d</tspan><tspan x="10.759%">s</tspan><tspan x="11.392%">:</tspan>
</tspan>
<tspan y="43.902%">
<tspan dy="1em" x="1.266%">h</tspan><tspan x="1.899%">e</tspan><tspan x="2.532%">l</tspan><tspan x="3.165%">p</tspan><tspan x="8.861%">H</tspan><tspan x="9.494%">e</tspan><tspan x="10.127%">l</tspan><tspan x="10.759%">p</tspan><tspan x="12.025%">a</tspan><tspan x="12.658%">b</tspan><tspan x="13.291%">o</tspan><tspan x="13.924%">u</tspan><tspan x="14.557%">t</tspan><tspan x="15.823%">a</tspan><tspan x="16.456%">n</tspan><tspan x="17.089%">y</tspan><tspan x="18.354%">c</tspan><tspan x="18.987%">o</tspan><tspan x="19.620%">m</tspan><tspan x="20.253%">m</tspan><tspan x="20.886%">a</tspan><tspan x="21.519%">n</tspan><tspan x="22.152%">d</tspan>
</tspan>
<tspan y="46.341%">
<tspan dy="1em" x="1.266%">l</tspan><tspan x="1.899%">o</tspan><tspan x="2.532%">g</tspan><tspan x="3.165%">i</tspan><tspan x="3.797%">n</tspan><tspan x="8.861%">L</tspan><tspan x="9.494%">o</tspan><tspan x="10.127%">g</tspan><tspan x="10.759%">g</tspan><tspan x="11.392%">i</tspan><tspan x="12.025%">n</tspan><tspan x="12.658%">g</tspan><tspan x="13.924%">i</tspan><tspan x="14.557%">n</tspan><tspan x="15.190%">t</tspan><tspan x="15.823%">o</tspan><tspan x="17.089%">G</tspan><tspan x="17.722%">o</tspan><tspan x="18.354%">o</tspan><tspan x="18.987%">g</tspan><tspan x="19.620%">l</tspan><tspan x="20.253%">e</tspan><tspan x="21.519%">T</tspan><tspan x="22.152%">a</tspan><tspan x="22.785%">s</tspan><tspan x="23.418%">k</tspan><tspan x="24.051%">s</tspan>
</tspan>
<tspan y="48.780%">
<tspan dy="1em" x="1.266%">t</tspan><tspan x="1.899%">a</tspan><tspan x="2.532%">s</tspan><tspan x="3.165%">k</tspan><tspan x="3.797%">l</tspan><tspan x="4.430%">i</tspan><tspan x="5.063%">s</tspan><tspan x="5.696%">t</tspan><tspan x="6.329%">s</tspan><tspan x="8.861%">V</tspan><tspan x="9.494%">i</tspan><tspan x="10.127%">e</tspan><tspan x="10.759%">w</tspan><tspan x="12.025%">a</tspan><tspan x="12.658%">n</tspan><tspan x="13.291%">d</tspan><tspan x="14.557%">c</tspan><tspan x="15.190%">r</tspan><tspan x="15.823%">e</tspan><tspan x="16.456%">a</tspan><tspan x="17.089%">t</tspan><tspan x="17.722%">e</tspan><tspan x="18.987%">t</tspan><tspan x="19.620%">a</tspan><tspan x="20.253%">s</tspan><tspan x="20.886%">k</tspan><tspan x="21.519%">l</tspan><tspan x="22.152%">i</tspan><tspan x="22.785%">s</tspan><tspan x="23.418%">t</tspan><tspan x="24.051%">s</tspan><tspan x="25.316%">f</tspan><tspan x="25.949%">o</tspan><tspan x="26.582%">r</tspan><tspan x="27.848%">c</tspan><tspan x="28.481%">u</tspan><tspan x="29.114%">r</tspan><tspan x="29.747%">r</tspan><tspan x="30.380%">e</tspan><tspan x="31.013%">n</tspan><tspan x="31.646%">t</tspan><tspan x="32.278%">l</tspan><tspan x="32.911%">y</tspan><tspan x="34.177%">s</tspan><tspan x="34.810%">i</tspan><tspan x="35.443%">g</tspan><tspan x="36.076%">n</tspan><tspan x="36.709%">e</tspan><tspan x="37.342%">d</tspan><tspan x="37.975%">-</tspan><tspan x="38.608%">i</tspan><tspan x="39.241%">n</tspan><tspan x="40.506%">a</tspan><tspan x="41.139%">c</tspan><tspan x="41.772%">c</tspan><tspan x="42.405%">o</tspan><tspan x="43.038%">u</tspan><tspan x="43.671%">n</tspan><tspan x="44.304%">t</tspan>
</tspan>
<tspan y="51.220%">
<tspan dy="1em" x="1.266%">t</tspan><tspan x="1.899%">a</tspan><tspan x="2.532%">s</tspan><tspan x="3.165%">k</tspan><tspan x="3.797%">s</tspan><tspan x="8.861%">V</tspan><tspan x="9.494%">i</tspan><tspan x="10.127%">e</tspan><tspan x="10.759%">w</tspan><tspan x="11.392%">,</tspan><tspan x="12.658%">c</tspan><tspan x="13.291%">r</tspan><tspan x="13.924%">e</tspan><tspan x="14.557%">a</tspan><tspan x="15.190%">t</tspan><tspan x="15.823%">e</tspan><tspan x="16.456%">,</tspan><tspan x="17.722%">a</tspan><tspan x="18.354%">n</tspan><tspan x="18.987%">d</tspan><tspan x="20.253%">d</tspan><tspan x="20.886%">e</tspan><tspan x="21.519%">l</tspan><tspan x="22.152%">e</tspan><tspan x="22.785%">t</tspan><tspan x="23.418%">e</tspan><tspan x="24.684%">t</tspan><tspan x="25.316%">a</tspan><tspan x="25.949%">s</tspan><tspan x="26.582%">k</tspan><tspan x="27.215%">s</tspan><tspan x="28.481%">i</tspan><tspan x="29.114%">n</tspan><tspan x="30.380%">a</tspan><tspan x="31.646%">t</tspan><tspan x="32.278%">a</tspan><tspan x="32.911%">s</tspan><tspan x="33.544%">k</tspan><tspan x="34.177%">l</tspan><tspan x="34.810%">i</tspan><tspan x="35.443%">s</tspan><tspan x="36.076%">t</tspan>
</tspan>
<tspan y="53.659%">

</tspan>
<tspan y="56.098%">
<tspan dy="1em" x="0.000%">F</tspan><tspan x="0.633%">l</tspan><tspan x="1.266%">a</tspan><tspan x="1.899%">g</tspan><tspan x="2.532%">s</tspan><tspan x="3.165%">:</tspan>
</tspan>
<tspan y="58.537%">
<tspan dy="1em" x="1.266%">-</tspan><tspan x="1.899%">h</tspan><tspan x="2.532%">,</tspan><tspan x="3.797%">-</tspan><tspan x="4.430%">-</tspan><tspan x="5.063%">h</tspan><tspan x="5.696%">e</tspan><tspan x="6.329%">l</tspan><tspan x="6.962%">p</tspan><tspan x="11.392%">h</tspan><tspan x="12.025%">e</tspan><tspan x="12.658%">l</tspan><tspan x="13.291%">p</tspan><tspan x="14.557%">f</tspan><tspan x="15.190%">o</tspan><tspan x="15.823%">r</tspan><tspan x="17.089%">g</tspan><tspan x="17.722%">t</tspan><tspan x="18.354%">a</tspan><tspan x="18.987%">s</tspan><tspan x="19.620%">k</tspan><tspan x="20.253%">s</tspan>
</tspan>
<tspan y="60.976%">
<tspan dy="1em" x="1.266%">-</tspan><tspan x="1.899%">t</tspan><tspan x="2.532%">,</tspan><tspan x="3.797%">-</tspan><tspan x="4.430%">-</tspan><tspan x="5.063%">t</tspan><tspan x="5.696%">o</tspan><tspan x="6.329%">g</tspan><tspan x="6.962%">g</tspan><tspan x="7.595%">l</tspan><tspan x="8.228%">e</tspan><tspan x="11.392%">H</tspan><tspan x="12.025%">e</tspan><tspan x="12.658%">l</tspan><tspan x="13.291%">p</tspan><tspan x="14.557%">m</tspan><tspan x="15.190%">e</tspan><tspan x="15.823%">s</tspan><tspan x="16.456%">s</tspan><tspan x="17.089%">a</tspan><tspan x="17.722%">g</tspan><tspan x="18.354%">e</tspan><tspan x="19.620%">f</tspan><tspan x="20.253%">o</tspan><tspan x="20.886%">r</tspan><tspan x="22.152%">t</tspan><tspan x="22.785%">o</tspan><tspan x="23.418%">g</tspan><tspan x="24.051%">g</tspan><tspan x="24.684%">l</tspan><tspan x="25.316%">e</tspan>
</tspan>
<tspan y="63.415%">
<tspan dy="1em" x="1.266%">-</tspan><tspan x="1.899%">v</tspan><tspan x="2.532%">,</tspan><tspan x="3.797%">-</tspan><tspan x="4.430%">-</tspan><tspan x="5.063%">v</tspan><tspan x="5.696%">e</tspan><tspan x="6.329%">r</tspan><tspan x="6.962%">s</tspan><tspan x="7.595%">i</tspan><tspan x="8.228%">o</tspan><tspan x="8.861%">n</tspan><tspan x="11.392%">v</tspan><tspan x="12.025%">e</tspan><tspan x="12.658%">r</tspan><tspan x="13.291%">s</tspan><tspan x="13.924%">i</tspan><tspan x="14.557%">o</tspan><tspan x="15.190%">n</tspan><tspan x="16.456%">f</tspan><tspan x="17.089%">o</tspan><tspan x="17.722%">r</tspan><tspan x="18.987%">g</tspan><tspan x="19.620%">t</tspan><tspan x="20.253%">a</tspan><tspan x="20.886%">s</tspan><tspan x="21.519%">k</tspan><tspan x="22.152%">s</tspan>
</tspan>
<tspan y="65.854%">

</tspan>
<tspan y="68.293%">
<tspan dy="1em" x="0.000%">U</tspan><tspan x="0.633%">s</tspan><tspan x="1.266%">e</tspan><tspan x="2.532%">&quot;</tspan><tspan x="3.165%">g</tspan><tspan x="3.797%">t</tspan><tspan x="4.430%">a</tspan><tspan x="5.063%">s</tspan><tspan x="5.696%">k</tspan><tspan x="6.329%">s</tspan><tspan x="7.595%">[</tspan><tspan x="8.228%">c</tspan><tspan x="8.861%">o</tspan><tspan x="9.494%">m</tspan><tspan x="10.127%">m</tspan><tspan x="10.759%">a</tspan><tspan x="11.392%">n</tspan><tspan x="12.025%">d</tspan><tspan x="12.658%">]</tspan><tspan x="13.924%">-</tspan><tspan x="14.557%">-</tspan><tspan x="15.190%">h</tspan><tspan x="15.823%">e</tspan><tspan x="16.456%">l</tspan><tspan x="17.089%">p</tspan><tspan x="17.722%">&quot;</tspan><tspan x="18.987%">f</tspan><tspan x="19.620%">o</tspan><tspan x="20.253%">r</tspan><tspan x="21.519%">m</tspan><tspan x="22.152%">o</tspan><tspan x="22.785%">r</tspan><tspan x="23.418%">e</tspan><tspan x="24.684%">i</tspan><tspan x="25.316%">n</tspan><tspan x="25.949%">f</tspan><tspan x="26.582%">o</tspan><tspan x="27.215%">r</tspan><tspan x="27.848%">m</tspan><tspan x="28.481%">a</tspan><tspan x="29.114%">t</tspan><tspan x="29.747%">i</tspan><tspan x="30.380%">o</tspan><tspan x="31.013%">n</tspan><tspan x="32.278%">a</tspan><tspan x="32.911%">b</tspan><tspan x="33.544%">o</tspan><tspan x="34.177%">u</tspan><tspan x="34.810%">t</tspan><tspan x="36.076%">a</tspan><tspan x="37.342%">c</tspan><tspan x="37.975%">o</tspan><tspan x="38.608%">m</tspan><tspan x="39.241%">m</tspan><tspan x="39.873%">a</tspan><tspan x="40.506%">n</tspan><tspan x="41.139%">d</tspan><tspan x="41.772%">.</tspan>
</tspan>
<tspan y="70.732%">

</tspan>
<tspan y="73.171%">
<tspan dy="1em" x="0.000%" class="c-238">╭</tspan><tspan x="0.633%" class="c-238">─</tspan><tspan x="1.899%" class="c-255"></tspan><tspan x="3.165%" class="c-242"></tspan><tspan x="4.430%" class="c-31"></tspan><tspan x="5.696%" class="br c-39">~</tspan><tspan x="6.962%" class="c-234"></tspan><tspan x="83.544%" class="c-234"></tspan><tspan x="84.810%" class="c-70">✔</tspan><tspan x="86.076%" class="c-242"></tspan><tspan x="87.342%" class="c-244">a</tspan><tspan x="87.975%" class="c-244">t</tspan><tspan x="89.241%" class="c-66">0</tspan><tspan x="89.873%" class="c-66">7</tspan><tspan x="90.506%" class="c-66">:</tspan><tspan x="91.139%" class="c-66">4</tspan><tspan x="91.772%" class="c-66">9</tspan><tspan x="92.405%" class="c-66">:</tspan><tspan x="93.038%" class="c-66">5</tspan><tspan x="93.671%" class="c-66">8</tspan><tspan x="94.937%" class="c-66">P</tspan><tspan x="95.570%" class="c-66">M</tspan><tspan x="96.835%" class="c-66"></tspan>
</tspan>
<tspan y="75.610%">
<tspan dy="1em" x="0.000%" class="c-238">╰</tspan><tspan x="0.633%" class="c-238">─</tspan>
</tspan>
<tspan y="78.049%">

</tspan>
<tspan y="80.488%">

</tspan>
<tspan y="82.927%">

</tspan>
<tspan y="85.366%">

</tspan>
<tspan y="87.805%">

</tspan>
<tspan y="90.244%">

</tspan>
<tspan y="92.683%">

</tspan>
<tspan y="95.122%">

</tspan>

</text>

<g transform="translate(-50 -50)">
<svg x="50%" y="50%" width="100" height="100">
<svg version="1.1" xmlns="http://www.w3.org/2000/svg" viewBox="0 0 866.0254037844387 866.0254037844387">
  <defs>
    <mask id="small-triangle-mask">
      <rect width="100%" height="100%" fill="white"/>
      <polygon points="508.01270189221935 433.01270189221935, 208.0127018922194 259.8076211353316, 208.01270189221927 606.217782649107" fill="black"></polygon>
    </mask>
  </defs>
  <polygon points="808.0127018922194 433.01270189221935, 58.01270189221947 -1.1368683772161603e-13, 58.01270189221913 866.0254037844386" mask="url(#small-triangle-mask)" fill="white"></polygon>
  <polyline points="481.2177826491071 333.0127018922194, 134.80762113533166 533.0127018922194" stroke="white" stroke-width="90"></polyline>
</svg>

</svg>
</g>
</svg>
</svg>
